<?xml version="1.0" encoding="UTF-8" standalone="no"?>
<!-- Created with Inkscape (http://www.inkscape.org/) -->
<svg
   xmlns:svg="http://www.w3.org/2000/svg"
   xmlns="http://www.w3.org/2000/svg"
   version="1.0"
   width="116.68"
   height="93.25"
   id="svg2"
   xml:space="preserve"><defs
     id="defs5"><clipPath
       id="clipPath21"><path
         d="M 246.18,711.38 L 347.64,711.38 L 347.64,792.8 L 246.18,792.8 L 246.18,711.38 z"
         id="path23" /></clipPath></defs><g
     transform="matrix(1.25,0,0,-1.25,-312.6,985.4871)"
     id="g11"><path
       d="M 339.94569,714.81669 L 342.52569,714.81669 L 342.52569,732.63669 L 339.94569,732.63669 L 339.94569,714.81669 z"
       id="path27"
       style="fill:#444492;fill-opacity:1;fill-rule:nonzero;stroke:none" /><path
       d="M 311.62569,730.29669 L 310.36569,730.17669 L 309.04569,729.75669 C 303.32669,727.19069 304.20369,718.49169 310.36569,717.15669 L 311.62569,717.03669 L 312.94569,717.15669 C 319.37769,718.41569 319.77469,727.68569 314.20569,729.75669 L 312.94569,730.17669 L 311.62569,730.29669 z M 311.62569,732.75669 L 312.70569,732.75669 L 313.60569,732.63669 C 323.65769,730.04769 322.83969,715.96569 312.52569,714.69669 L 310.72569,714.69669 C 300.41969,716.21369 299.62069,730.03269 309.82569,732.63669 L 310.72569,732.75669 L 311.62569,732.75669"
       id="path31"
       style="fill:#444492;fill-opacity:1;fill-rule:evenodd;stroke:none" /><path
       d="M 256.84569,730.53669 L 256.18569,730.53669 L 255.70569,730.41669 L 255.16569,730.17669 L 254.62569,729.75669 L 254.38569,729.39669 L 254.14569,728.85669 L 254.02569,728.37669 L 254.02569,727.71669 L 254.14569,727.35669 L 254.26569,726.81669 L 254.62569,726.39669 L 255.04569,726.15669 L 256.18569,725.67669 L 259.78569,724.35669 L 260.56569,723.99669 L 261.10569,723.57669 L 261.76569,722.79669 L 262.24569,722.01669 C 264.72969,714.95969 254.48669,711.66669 251.26569,717.75669 L 250.90569,718.83669 L 250.78569,719.97669 L 253.24569,719.97669 L 253.36569,719.19669 L 253.60569,718.53669 L 254.02569,718.05669 L 254.38569,717.51669 L 254.92569,717.27669 L 255.40569,717.03669 L 256.06569,716.85669 L 257.38569,716.85669 L 257.86569,717.03669 L 258.52569,717.27669 L 259.06569,717.51669 C 260.39769,719.07169 260.58569,720.86869 258.64569,722.01669 L 257.62569,722.55669 L 256.18569,722.91669 L 254.62569,723.45669 L 253.48569,724.11669 L 252.58569,724.77669 L 251.92569,725.49669 L 251.56569,726.57669 L 251.38569,727.71669 L 251.56569,728.73669 L 251.80569,729.75669 L 252.34569,730.65669 L 252.94569,731.31669 L 253.72569,731.97669 C 256.00069,733.51469 259.26969,733.04369 261.10569,730.83669 L 261.76569,730.05669 L 262.12569,729.03669 L 262.24569,727.95669 L 259.66569,727.95669 L 259.54569,728.61669 C 259.31769,729.63669 258.38069,730.34969 257.38569,730.53669 L 256.84569,730.53669"
       id="path35"
       style="fill:#444492;fill-opacity:1;fill-rule:evenodd;stroke:none" /><path
       d="M 326.86569,732.63669 L 335.26569,732.63669 L 335.26569,730.17669 L 327.64569,730.17669 L 327.64569,724.47669 L 335.26569,724.47669 L 335.26569,722.01669 L 327.64569,722.01669 L 327.64569,714.81669 L 325.06569,714.81669 L 325.06569,730.83669 L 325.18569,731.61669 L 325.60569,732.09669 L 326.14569,732.51669 L 326.86569,732.63669"
       id="path39"
       style="fill:#444492;fill-opacity:1;fill-rule:evenodd;stroke:none" /><path
       d="M 287.08569,728.49669 L 287.08569,714.81669 L 284.50569,714.81669 L 284.50569,730.95669 L 284.62569,731.73669 L 285.04569,732.21669 L 285.52569,732.63669 L 286.30569,732.75669 L 286.72569,732.75669 L 287.20569,732.51669 L 287.44569,732.21669 L 287.86569,731.85669 L 295.60569,718.95669 L 295.72569,732.63669 L 298.30569,732.63669 L 298.30569,716.49669 L 298.18569,715.71669 L 297.82569,715.17669 L 297.16569,714.81669 L 296.50569,714.69669 L 296.02569,714.69669 L 295.60569,714.81669 L 295.24569,715.05669 L 294.94569,715.47669 L 287.08569,728.49669"
       id="path43"
       style="fill:#444492;fill-opacity:1;fill-rule:evenodd;stroke:none" /><path
       d="M 272.74569,729.27669 L 270.16569,722.19669 L 275.44569,722.19669 L 272.74569,729.27669 z M 269.26569,719.85669 L 267.46569,714.81669 L 264.70569,714.81669 L 271.06569,731.61669 L 271.30569,732.09669 L 271.72569,732.51669 L 272.20569,732.63669 L 272.74569,732.75669 L 273.28569,732.63669 L 273.76569,732.51669 L 274.18569,732.09669 L 274.42569,731.61669 L 280.72569,714.81669 L 278.02569,714.81669 L 276.22569,719.85669 L 269.26569,719.85669"
       id="path47"
       style="fill:#444492;fill-opacity:1;fill-rule:evenodd;stroke:none" /><path
       d="M 318.76569,771.57669 L 317.32569,773.37669 L 316.66569,774.15669 L 315.88569,774.81669 C 312.53169,777.71169 308.00769,776.97569 304.12569,775.71669 L 301.06569,774.81669 L 299.50569,774.39669 C 295.28269,773.53669 290.85069,774.00469 289.12569,778.53669 L 288.88569,779.73669 L 288.76569,780.87669 L 289.00569,782.01669 L 289.42569,783.21669 C 291.03169,787.21969 297.11569,788.23169 300.88569,787.17669 L 302.74569,786.81669 L 304.42569,786.27669 C 309.57269,784.57969 313.66269,781.04569 316.54569,776.49669 L 317.44569,774.93669 L 318.76569,771.57669"
       id="path51"
       style="fill:#bca36a;fill-opacity:1;fill-rule:nonzero;stroke:none" /><path
       d="M 319.00569,770.91669 L 319.24569,769.53669 L 319.66569,767.97669 C 320.63969,760.24169 317.69169,752.09269 311.50569,747.21669 L 309.70569,745.77669 L 307.90569,744.75669 C 301.08269,740.91269 292.26469,741.01569 285.52569,744.99669 L 283.96569,746.01669 L 282.40569,747.21669 L 283.60569,746.79669 L 284.86569,746.55669 C 291.00669,745.59569 296.22269,747.35169 299.86569,752.49669 L 301.30569,754.83669 L 302.44569,757.11669 C 305.30569,763.52269 307.39969,770.58869 315.52569,771.21669 L 317.20569,771.21669 L 319.00569,770.91669"
       id="path55"
       style="fill:#444492;fill-opacity:1;fill-rule:evenodd;stroke:none" /><path
       d="M 288.64569,749.01669 L 287.44569,748.47669 C 278.02869,746.11369 273.46669,758.93469 274.18569,766.17669 L 274.30569,767.43669 L 275.20569,766.29669 L 276.22569,765.27669 C 280.46269,760.84369 284.33169,761.17569 289.30569,758.43669 L 289.78569,757.89669 L 290.20569,757.41669 C 292.00369,755.14169 291.61169,752.01969 289.78569,749.91669 L 289.12569,749.49669 L 288.64569,749.01669"
       id="path59"
       style="fill:#acb317;fill-opacity:1;fill-rule:evenodd;stroke:none" /><text
       transform="matrix(1,0,0,-1,134.88,636.1403)"
       id="text69"><tspan
         x="0"
         y="0"
         id="tspan71"
         style="font-size:12px;font-variant:normal;font-weight:normal;font-stretch:normal;writing-mode:lr-tb;fill:#444492;fill-opacity:1;fill-rule:nonzero;stroke:none;font-family:Symbol;-inkscape-font-specification:SymbolMT"></tspan></text>
<text
       transform="matrix(1,0,0,-1,134.88,621.5603)"
       id="text77"><tspan
         x="0"
         y="0"
         id="tspan79"
         style="font-size:12px;font-variant:normal;font-weight:normal;font-stretch:normal;writing-mode:lr-tb;fill:#444492;fill-opacity:1;fill-rule:nonzero;stroke:none;font-family:Symbol;-inkscape-font-specification:SymbolMT"></tspan></text>
<text
       transform="matrix(1,0,0,-1,134.88,606.9803)"
       id="text85"><tspan
         x="0"
         y="0"
         id="tspan87"
         style="font-size:12px;font-variant:normal;font-weight:normal;font-stretch:normal;writing-mode:lr-tb;fill:#444492;fill-opacity:1;fill-rule:nonzero;stroke:none;font-family:Symbol;-inkscape-font-specification:SymbolMT"></tspan></text>
<text
       transform="matrix(1,0,0,-1,134.88,592.3403)"
       id="text93"><tspan
         x="0"
         y="0"
         id="tspan95"
         style="font-size:12px;font-variant:normal;font-weight:normal;font-stretch:normal;writing-mode:lr-tb;fill:#444492;fill-opacity:1;fill-rule:nonzero;stroke:none;font-family:Symbol;-inkscape-font-specification:SymbolMT"></tspan></text>
<text
       transform="matrix(1,0,0,-1,134.87946,273.98094)"
       id="text165"><tspan
         x="0"
         y="0"
         id="tspan167"
         style="font-size:10.97999954px;font-variant:normal;font-weight:normal;font-stretch:normal;writing-mode:lr-tb;fill:#c1c1c1;fill-opacity:1;fill-rule:nonzero;stroke:none;font-family:Symbol;-inkscape-font-specification:SymbolMT"></tspan></text>
<text
       transform="matrix(1,0,0,-1,134.87946,260.60071)"
       id="text173"><tspan
         x="0"
         y="0"
         id="tspan175"
         style="font-size:10.97999954px;font-variant:normal;font-weight:normal;font-stretch:normal;writing-mode:lr-tb;fill:#c1c1c1;fill-opacity:1;fill-rule:nonzero;stroke:none;font-family:Symbol;-inkscape-font-specification:SymbolMT"></tspan></text>
<text
       transform="matrix(1,0,0,-1,134.87946,247.22048)"
       id="text181"><tspan
         x="0"
         y="0"
         id="tspan183"
         style="font-size:10.97999954px;font-variant:normal;font-weight:normal;font-stretch:normal;writing-mode:lr-tb;fill:#c1c1c1;fill-opacity:1;fill-rule:nonzero;stroke:none;font-family:Symbol;-inkscape-font-specification:SymbolMT"></tspan></text>
<text
       transform="matrix(1,0,0,-1,134.87946,233.78096)"
       id="text189"><tspan
         x="0"
         y="0"
         id="tspan191"
         style="font-size:10.97999954px;font-variant:normal;font-weight:normal;font-stretch:normal;writing-mode:lr-tb;fill:#c1c1c1;fill-opacity:1;fill-rule:nonzero;stroke:none;font-family:Symbol;-inkscape-font-specification:SymbolMT"></tspan></text>
<text
       transform="matrix(1,0,0,-1,134.87946,220.40074)"
       id="text197"><tspan
         x="0"
         y="0"
         id="tspan199"
         style="font-size:10.97999954px;font-variant:normal;font-weight:normal;font-stretch:normal;writing-mode:lr-tb;fill:#c1c1c1;fill-opacity:1;fill-rule:nonzero;stroke:none;font-family:Symbol;-inkscape-font-specification:SymbolMT"></tspan></text>
<text
       transform="matrix(1,0,0,-1,134.87946,207.02051)"
       id="text205"><tspan
         x="0"
         y="0"
         id="tspan207"
         style="font-size:10.97999954px;font-variant:normal;font-weight:normal;font-stretch:normal;writing-mode:lr-tb;fill:#c1c1c1;fill-opacity:1;fill-rule:nonzero;stroke:none;font-family:Symbol;-inkscape-font-specification:SymbolMT"></tspan></text>
<text
       transform="matrix(1,0,0,-1,134.87946,193.64028)"
       id="text213"><tspan
         x="0"
         y="0"
         id="tspan215"
         style="font-size:10.97999954px;font-variant:normal;font-weight:normal;font-stretch:normal;writing-mode:lr-tb;fill:#c1c1c1;fill-opacity:1;fill-rule:nonzero;stroke:none;font-family:Symbol;-inkscape-font-specification:SymbolMT"></tspan></text>
<text
       transform="matrix(1,0,0,-1,134.87946,180.26005)"
       id="text221"><tspan
         x="0"
         y="0"
         id="tspan223"
         style="font-size:10.97999954px;font-variant:normal;font-weight:normal;font-stretch:normal;writing-mode:lr-tb;fill:#c1c1c1;fill-opacity:1;fill-rule:nonzero;stroke:none;font-family:Symbol;-inkscape-font-specification:SymbolMT"></tspan></text>
<text
       transform="matrix(1,0,0,-1,134.87946,166.87982)"
       id="text229"><tspan
         x="0"
         y="0"
         id="tspan231"
         style="font-size:10.97999954px;font-variant:normal;font-weight:normal;font-stretch:normal;writing-mode:lr-tb;fill:#c1c1c1;fill-opacity:1;fill-rule:nonzero;stroke:none;font-family:Symbol;-inkscape-font-specification:SymbolMT"></tspan></text>
<text
       transform="matrix(1,0,0,-1,134.87946,153.4403)"
       id="text237"><tspan
         x="0"
         y="0"
         id="tspan239"
         style="font-size:10.97999954px;font-variant:normal;font-weight:normal;font-stretch:normal;writing-mode:lr-tb;fill:#c1c1c1;fill-opacity:1;fill-rule:nonzero;stroke:none;font-family:Symbol;-inkscape-font-specification:SymbolMT"></tspan></text>
<text
       transform="matrix(1,0,0,-1,134.87946,140.06008)"
       id="text245"><tspan
         x="0"
         y="0"
         id="tspan247"
         style="font-size:10.97999954px;font-variant:normal;font-weight:normal;font-stretch:normal;writing-mode:lr-tb;fill:#c1c1c1;fill-opacity:1;fill-rule:nonzero;stroke:none;font-family:Symbol;-inkscape-font-specification:SymbolMT"></tspan></text>
<text
       transform="matrix(1,0,0,-1,134.87946,126.67985)"
       id="text253"><tspan
         x="0"
         y="0"
         id="tspan255"
         style="font-size:10.97999954px;font-variant:normal;font-weight:normal;font-stretch:normal;writing-mode:lr-tb;fill:#c1c1c1;fill-opacity:1;fill-rule:nonzero;stroke:none;font-family:Symbol;-inkscape-font-specification:SymbolMT"></tspan></text>
<text
       transform="matrix(1,0,0,-1,134.87946,113.29962)"
       id="text261"><tspan
         x="0"
         y="0"
         id="tspan263"
         style="font-size:10.97999954px;font-variant:normal;font-weight:normal;font-stretch:normal;writing-mode:lr-tb;fill:#c1c1c1;fill-opacity:1;fill-rule:nonzero;stroke:none;font-family:Symbol;-inkscape-font-specification:SymbolMT"></tspan></text>
<text
       transform="matrix(1,0,0,-1,134.87946,99.919392)"
       id="text269"><tspan
         x="0"
         y="0"
         id="tspan271"
         style="font-size:10.97999954px;font-variant:normal;font-weight:normal;font-stretch:normal;writing-mode:lr-tb;fill:#c1c1c1;fill-opacity:1;fill-rule:nonzero;stroke:none;font-family:Symbol;-inkscape-font-specification:SymbolMT"></tspan></text>
<text
       transform="matrix(1,0,0,-1,134.87946,86.539164)"
       id="text277"><tspan
         x="0"
         y="0"
         id="tspan279"
         style="font-size:10.97999954px;font-variant:normal;font-weight:normal;font-stretch:normal;writing-mode:lr-tb;fill:#c1c1c1;fill-opacity:1;fill-rule:nonzero;stroke:none;font-family:Symbol;-inkscape-font-specification:SymbolMT"></tspan></text>
</g></svg>